<svg width="315" height="367" viewBox="0 0 315 367" fill="none" xmlns="http://www.w3.org/2000/svg">
<path d="M292.302 162.732C304.277 168.477 309.775 184.111 304.03 196.086L185.09 444.034C172.925 469.392 143.037 479.316 118.383 467.49L-152.106 337.736C-177.464 325.572 -187.726 296.388 -175.562 271.029L-78.2467 68.1629C-72.5024 56.1881 -57.5724 50.3527 -44.8932 56.4349L-22.3525 67.2477L-125.074 281.384C-128.115 287.724 -125.55 295.02 -119.21 298.061C-113.575 300.764 -105.574 298.537 -102.533 292.197L11.001 55.5198C16.7453 43.545 31.6753 37.7096 44.3545 43.7918L292.302 162.732ZM16.0343 362.938C21.6695 365.641 29.67 363.414 32.7111 357.074C35.4143 351.439 32.4823 343.1 26.8471 340.397L-40.775 307.959C-47.1146 304.918 -54.7486 308.188 -57.4518 313.823C-60.4929 320.162 -57.9274 327.458 -51.5878 330.5L16.0343 362.938ZM48.4727 295.316C54.1079 298.019 62.1083 295.791 65.1494 289.452C67.8526 283.817 64.9206 275.478 59.2855 272.775L-8.33668 240.337C-14.6763 237.296 -22.3102 240.565 -25.0134 246.201C-28.0545 252.54 -25.489 259.836 -19.1495 262.877L48.4727 295.316ZM128.738 417.002C134.373 419.705 142.374 417.477 145.415 411.138C148.118 405.503 145.186 397.164 139.551 394.461L71.9286 362.023C65.589 358.982 57.955 362.252 55.2518 367.887C52.2107 374.226 54.7762 381.522 61.1158 384.563L128.738 417.002ZM161.176 349.38C166.811 352.083 174.812 349.855 177.853 343.516C180.556 337.88 177.624 329.542 171.989 326.839L104.367 294.401C98.0273 291.36 90.3933 294.629 87.6901 300.265C84.649 306.604 87.2145 313.9 93.5541 316.941L161.176 349.38ZM210.291 275.894L242.73 208.271C245.433 202.636 242.501 194.298 236.866 191.595L56.54 105.092C50.2004 102.051 42.5664 105.321 39.8632 110.956L7.42491 178.579C4.38381 184.918 6.9493 192.214 13.2889 195.255L193.615 281.758C199.25 284.461 207.25 282.233 210.291 275.894Z" fill="#1DB3BC" fill-opacity="0.1"/>
</svg>
